# xmcd CD database file
#
# Track frame offsets:
#	150
#	15513
#	30524
#	49853
#	62811
#	80722
#	101367
#	120899
#	136489
#	149713
#	166213
#	178787
#	188489
#	202331
#	217117
#	228234
#	244975
#	257140
#	274073
#	288341
#	302654
#	316487
#
# Disc length: 4374 seconds
#
# Revision: 2
# Processed by: cddbd v1.5.2PL0 Copyright (c) Steve Scherf et al.
# Submitted via: CDex 1.51
#
DISCID=46111416
DTITLE=Various Artist - 30 let Ceske Country 1987 - 1996
DYEAR=1900
DGENRE=Country
TTITLE0=Sedm spanelskych andelu (Greenhorns)
TTITLE1=Az na vrcholky hor (Vera Martinaova)
TTITLE2=Vic nez pritel (Cernoch a Brabec)
TTITLE3=Vcera jsem te nevidel (Tucny a Rytir)
TTITLE4=Battledress (Honza Vycital)
TTITLE5=Uz nechci se vdat (Spiritual Kvintet)
TTITLE6=Medicinman (Michal Tucny)
TTITLE7=Tequila Sheila (Tomas Linka)
TTITLE8=Country boy (Pavel Bobek)
TTITLE9=Tulacka ukolebavka (Pavel Zalman lohonka)
TTITLE10=Ja budu zit naveky (Michal Tucny)
TTITLE11=Redback pod prkynkem hajzliku (Honza Vycital)
TTITLE12=Mym hrdinou byl vzdycky cowboy (Pavel Brümer)
TTITLE13=Rikali o nas, ze nejsme (Pavlina Jisova)
TTITLE14=Najednou (Mirek Cerny)
TTITLE15=Musim se sam sobe smat (Pavel Bobek, Robert Krestan)
TTITLE16=Jedu dal (Vrata Vyskocil)
TTITLE17=Ranni dest (Wabi Danek)
TTITLE18=U silnice E 55 (Mirek Hoffmann)
TTITLE19=Asfaltovy blues (Petr Kocman)
TTITLE20=Tom Dooley (Ladislav Vodicka)
TTITLE21=Dej Boze muj (Rangers)
EXTD=YEAR: 1900
EXTT0=
EXTT1=
EXTT2=
EXTT3=
EXTT4=
EXTT5=
EXTT6=
EXTT7=
EXTT8=
EXTT9=
EXTT10=
EXTT11=
EXTT12=
EXTT13=
EXTT14=
EXTT15=
EXTT16=
EXTT17=
EXTT18=
EXTT19=
EXTT20=
EXTT21=
PLAYORDER=
